<?xml version="1.0" standalone="no"?><!DOCTYPE svg PUBLIC "-//W3C//DTD SVG 1.1//EN" "http://www.w3.org/Graphics/SVG/1.1/DTD/svg11.dtd"><svg class="icon" height="512" viewBox="0 0 1024 1024" version="1.1" xmlns="http://www.w3.org/2000/svg"><path d="M922.112 92.16c-88.064-88.576-231.424-89.088-320-1.024L405.504 286.72c-88.576 88.064-89.088 231.424-1.024 320l10.752 10.752 47.104-46.592-10.752-10.752c-61.952-62.464-61.952-163.84 0.512-226.304L648.704 138.24c62.464-61.952 163.84-61.952 226.304 0.512l10.752 10.752c61.952 62.464 61.952 163.84-0.512 226.304L784.384 476.16l46.592 47.104 100.864-100.352c88.576-88.064 89.088-231.424 1.024-320l-10.752-10.752z" fill="" /><path d="M608.768 388.608l-47.104 46.592 10.752 10.752c30.208 30.208 46.592 70.656 46.592 113.152s-16.896 82.944-47.104 112.64l-196.608 195.584c-30.208 30.208-70.144 46.592-112.64 46.592h-0.512c-42.496 0-82.944-16.896-113.152-47.104l-10.752-10.752c-61.952-62.464-61.952-163.84 0.512-226.304l120.32-119.296-46.592-47.104L92.16 582.656C3.584 670.72 3.072 814.08 91.136 902.656l10.752 10.752c42.496 43.008 99.328 66.56 159.744 66.56h1.024c59.904 0 116.736-23.552 159.232-65.536l196.608-195.584c43.008-42.496 66.56-99.328 66.56-159.744s-23.04-117.248-65.536-160.256l-10.752-10.24z" fill="" /></svg>